<?xml version="1.0" encoding="utf-8"?>
<!-- Generator: Adobe Illustrator 19.0.0, SVG Export Plug-In . SVG Version: 6.00 Build 0)  -->
<svg version="1.2" baseProfile="tiny" id="Layer_1" xmlns="http://www.w3.org/2000/svg" xmlns:xlink="http://www.w3.org/1999/xlink"
	 x="0px" y="0px" viewBox="0 0 270 270" xml:space="preserve">
<g id="XMLID_2_">
	<path id="XMLID_3_" fill="#4A4A4A" d="M165.6,231L182,116l-48.1,115H98.7l5.1-115.5L61.1,231H40.6l65-175.9
		c-12.8,4.2-22.7,11.2-29.9,20.9C68.6,85.8,65,98,65,112.8c0,3.4,0.2,6.1,0.6,8.2c0.4,2,0.8,3.7,1.2,4.9c0.4,1.2,0.8,2.1,1.2,2.8
		s0.6,1.2,0.6,1.8c-4.2,0-7.9-0.4-11.3-1.2c-3.4-0.8-6.2-2.2-8.6-4c-2.4-1.8-4.2-4.2-5.5-7.2c-1.3-3-1.9-6.6-1.9-10.8
		c0-5.4,1.1-10.9,3.3-16.4c2.2-5.5,5.2-10.8,9.1-15.8c3.9-5,8.4-9.8,13.7-14.1s10.9-8.2,16.9-11.4c6-3.2,12.3-5.8,18.9-7.6
		c6.5-1.8,13.1-2.8,19.6-2.8c6.4,0,12.9,1.2,19.4,3.6l-5.9,134.9l56.4-134.9h36.9L202.5,231H165.6z"/>
</g>
</svg>
